<?xml version="1.0" encoding="UTF-8"?>
<svg id="Layer_1" data-name="Layer 1" xmlns="http://www.w3.org/2000/svg" viewBox="0 0 317.67 395.53">
  <path d="m194.6,0c1.62,1.52,3.14,2.86,4.57,4.29,26.71,26.67,52.85,53.94,80.23,79.9,51.31,48.68,50.95,131.56-.57,180.83-6.84,6.54-12.93,13.87-19.69,21.19-42.48-42.49-83.79-83.81-126.11-126.14-4.28,19.82-2.78,37.42,9.18,52.19,9.68,11.95,21.39,22.26,32.17,33.33,7.03,7.23,14.55,14.08,20.88,21.89,14.89,18.38,18.34,39.12,10.81,61.59-7.7,22.95-19.83,42.77-41.65,54.75-29.31,16.09-59.4,16.13-86.44-3.34-27.19-19.57-52.09-42.34-77.95-63.67,15.32-22.01,52.93-33.99,81.21-12.46,9.84,7.49,18.94,15.93,28.66,23.58,12.27,9.66,29.23,4.3,33.91-10.53,2-6.32,1.33-11.86-3.91-16.89-12.04-11.57-23.71-23.54-35.5-35.37-47.57-47.72-49.24-123.37-2.74-172.37,29.52-31.11,60.5-60.84,90.84-91.17.55-.55,1.26-.96,2.13-1.6Zm-21.37,109.06c26.56,27.12,53.15,54.26,80.31,81.99,3.69-20.1,2.07-39.04-11.53-53.94-15.37-16.83-32.8-31.78-49.03-47.26-6.12,5.95-13.45,13.08-19.75,19.2Z"/>
</svg>